# xmcd
#
# Track frame offsets:
#	182
#	12510
#	25370
#	35812
#	46175
#	56467
#	69702
#	81775
#	92672
#	102620
#	113845
#	125560
#	135602
#	148307
#	161260
#	177705
#	187792
#	202772
#	214140
#	229147
#	242435
#	252290
#	262150
#	272735
#	282457
#	300627
#	316135
#	328517
#
# Disc length: 4557 seconds
#
# Revision: 1
# Processed by: cddbd v1.5.2PL0 Copyright (c) Steve Scherf et al.
# Submitted via: audiograbber 1.83.01
#
DISCID=9e11cb1c
DTITLE=Various Artist - Mercury Nashville Gold: Catalog Sampler Vol. 3
DYEAR=1995
DGENRE=Country
TTITLE0=Sheriff Tom Owens and His Cowboys - A New Ten Gallon Hat
TTITLE1=Robert Lunn - Yodelin' Blues
TTITLE2=Bill Carlisle and The Carlisles - Too Old To Cut The Mustard
TTITLE3=Stanley Brothers - Angel Band
TTITLE4=Big Bopper - White Lightin'
TTITLE5=Jimmie Skinner - I Found My Girl From The U.S.A.
TTITLE6=George Jones - Out Of Control
TTITLE7=Bruce Channel - Hey! Baby
TTITLE8=Dolly Parton - The Love You Gave
TTITLE9=Faron Young - The Yellow Bandana
TTITLE10=Roy Drusky and Priscilla Mitchell - Yes, Mr. Peters
TTITLE11=Dave Dudley - Truck Drivin' Son-Of-A-Gun
TTITLE12=Billy Joe Shaver - Chicken On The Ground
TTITLE13=Jerry Lee Lewis - Would You Take Another Chance On Me
TTITLE14=Sonny Throckmorton - Last Cheater's Waltz
TTITLE15=Kendalls - Teach Me To Cheat
TTITLE16=Merle Haggard and Leona Williams - Sally Let Your Bangs Hang Down
TTITLE17=Statler Brothers - Oh Baby Mine (I Get So Lonely)
TTITLE18=Larry Boone - Don't Give Candy To A Stranger
TTITLE19=Sammy Kershaw - Cadillac Style
TTITLE20=Patti Page - Me! Oh Lord
TTITLE21=Mel Tillis - I Ain't Never
TTITLE22=Eddy Arnold - Anytime
TTITLE23=Tom T. Hall - I Love
TTITLE24=Glenn Sutton - The Football Card
TTITLE25=George Burns - I Wish I Was Eighteen Again
TTITLE26=Pure Prairie League With Vince Gill - I'll Be Damned
TTITLE27=Corbin and Hanner - Work Song
EXTD=
EXTT0=
EXTT1=
EXTT2=
EXTT3=
EXTT4=
EXTT5=
EXTT6=
EXTT7=
EXTT8=
EXTT9=
EXTT10=
EXTT11=
EXTT12=
EXTT13=
EXTT14=
EXTT15=
EXTT16=
EXTT17=
EXTT18=
EXTT19=
EXTT20=
EXTT21=
EXTT22=
EXTT23=
EXTT24=
EXTT25=
EXTT26=
EXTT27=
PLAYORDER=
